<?xml version="1.0" standalone="no"?>
<!DOCTYPE svg PUBLIC "-//W3C//DTD SVG 20010904//EN"
 "http://www.w3.org/TR/2001/REC-SVG-20010904/DTD/svg10.dtd">
<svg version="1.0" xmlns="http://www.w3.org/2000/svg"
 width="2000.000000pt" height="1334.000000pt" viewBox="0 0 2000.000000 1334.000000"
 preserveAspectRatio="xMidYMid meet">

<g transform="translate(0.000000,1334.000000) scale(0.100000,-0.100000)"
fill="#000000" stroke="none">
<path d="M65 13328 c-3 -7 -18 -76 -35 -152 -29 -136 -30 -147 -29 -395 0
-289 -3 -285 65 -61 34 112 136 508 149 583 l7 37 -76 0 c-52 0 -78 -4 -81
-12z"/>
<path d="M352 13242 c-80 -333 -202 -718 -296 -938 l-56 -131 0 -129 1 -129
24 40 c85 137 237 483 320 729 69 205 185 609 185 644 0 8 -23 12 -77 12 l-78
0 -23 -98z"/>
<path d="M670 13268 c-211 -725 -367 -1097 -622 -1476 l-49 -74 3 -81 3 -81
76 100 c319 416 528 871 765 1667 5 15 -3 17 -75 17 l-80 0 -21 -72z"/>
<path d="M937 13132 c-251 -761 -487 -1205 -869 -1633 -67 -75 -68 -78 -68
-133 0 -31 4 -56 9 -56 13 0 248 255 336 365 308 383 513 784 760 1480 29 83
56 158 60 168 6 15 -1 17 -76 17 l-84 0 -68 -208z"/>
<path d="M1319 13313 c-168 -446 -266 -678 -380 -903 -210 -415 -413 -693
-763 -1042 l-177 -176 3 -45 3 -46 130 116 c535 479 843 908 1142 1593 69 156
213 511 213 522 0 4 -36 8 -80 8 -79 0 -81 -1 -91 -27z"/>
<path d="M1571 13142 c-170 -397 -324 -704 -472 -942 -235 -380 -554 -731
-986 -1089 -109 -89 -113 -94 -113 -132 0 -21 3 -39 6 -39 4 0 50 35 103 77
524 420 833 739 1096 1133 172 259 299 493 500 925 l123 265 -86 0 -87 -1 -84
-197z"/>
<path d="M1891 13138 c-497 -1032 -856 -1478 -1738 -2163 -152 -117 -153 -118
-153 -158 l0 -39 38 28 c895 668 1308 1090 1689 1729 113 190 433 780 433 799
0 3 -38 6 -85 6 l-86 0 -98 -202z"/>
<path d="M2195 13092 c-421 -745 -630 -1037 -1016 -1419 -249 -246 -529 -480
-967 -807 l-212 -159 0 -39 c0 -29 3 -37 12 -32 35 21 644 484 788 599 605
485 925 838 1312 1445 104 165 398 647 398 655 0 3 -39 5 -87 5 l-88 0 -140
-248z"/>
<path d="M2534 13098 c-364 -558 -541 -806 -742 -1038 -123 -142 -405 -420
-572 -562 -225 -191 -354 -292 -1000 -781 l-215 -162 -3 -42 c-2 -24 0 -43 3
-43 4 0 57 40 118 88 62 49 254 196 427 327 720 544 971 754 1255 1047 243
250 420 474 790 1003 131 187 249 355 263 373 l24 32 -95 0 -95 0 -158 -242z"/>
<path d="M3019 13282 c-25 -31 -164 -214 -309 -407 -384 -512 -523 -678 -770
-925 -268 -269 -517 -476 -1175 -975 -209 -159 -456 -350 -549 -424 -93 -75
-179 -144 -192 -154 -20 -15 -24 -28 -24 -68 0 -27 2 -49 5 -49 3 0 56 44 118
98 166 144 457 374 862 682 996 756 1208 957 1839 1745 173 217 309 383 410
503 l28 32 -99 0 -98 0 -46 -58z"/>
<path d="M3430 13313 c-13 -16 -56 -63 -96 -106 -40 -42 -208 -235 -374 -427
-654 -760 -823 -916 -1780 -1645 -591 -451 -773 -597 -1047 -848 l-133 -121 0
-69 0 -69 148 149 c293 294 583 537 1187 993 925 699 1111 866 1771 1585 126
138 303 325 394 418 l165 167 -106 0 c-103 0 -106 -1 -129 -27z"/>
<path d="M3798 13268 c-166 -147 -281 -259 -678 -658 -611 -616 -723 -712
-1616 -1385 -726 -548 -1092 -869 -1406 -1235 l-98 -115 0 -97 c0 -54 2 -98 3
-98 2 0 34 43 72 96 208 294 495 597 869 918 191 165 443 362 850 669 741 556
915 701 1399 1161 431 411 590 554 811 730 l108 86 -116 0 -116 0 -82 -72z"/>
<path d="M4225 13254 c-256 -183 -440 -335 -845 -694 -548 -487 -657 -575
-1310 -1063 -509 -381 -621 -467 -830 -641 -512 -425 -869 -816 -1117 -1226
-130 -214 -123 -189 -122 -422 l0 -203 35 95 c194 530 460 930 933 1400 331
329 765 681 1411 1145 302 216 631 474 1025 801 308 257 459 378 620 499 124
93 420 293 536 362 l54 32 -135 1 -135 0 -120 -86z"/>
<path d="M4765 13272 c-370 -194 -711 -428 -1350 -928 -307 -240 -405 -313
-840 -629 -883 -640 -1245 -941 -1610 -1340 -517 -566 -805 -1181 -911 -1945
-21 -157 -30 -619 -15 -803 72 -871 394 -1707 932 -2424 201 -267 497 -580
774 -817 968 -830 2252 -1412 3865 -1750 755 -158 1437 -257 2950 -426 1446
-162 2380 -298 3425 -500 415 -80 843 -166 1340 -270 200 -42 987 -218 1410
-315 595 -138 869 -202 1830 -430 176 -42 376 -89 445 -105 69 -17 222 -52
340 -80 1010 -238 2243 -481 2563 -506 l87 -6 0 31 c0 17 -2 31 -5 31 -3 0
-92 13 -198 30 -911 141 -1843 341 -3517 755 -168 41 -397 97 -510 125 -113
27 -380 93 -595 146 -214 52 -435 106 -490 119 -55 13 -253 60 -440 105 -1679
402 -3074 679 -4306 855 -278 39 -825 109 -1214 155 -1584 186 -2302 296
-3100 471 -1480 326 -2691 879 -3630 1655 -161 133 -558 529 -686 684 -383
464 -658 956 -844 1515 -218 651 -283 1292 -194 1910 111 774 436 1403 1040
2016 372 376 661 608 1489 1194 201 142 532 380 735 529 770 563 1047 730
1665 1004 20 8 -11 11 -140 11 l-165 1 -130 -68z"/>
<path d="M5475 13296 c-418 -141 -850 -351 -1300 -634 -302 -189 -1520 -1030
-1840 -1271 -1012 -761 -1538 -1430 -1770 -2256 -106 -375 -151 -796 -127
-1193 60 -1012 465 -1981 1153 -2757 137 -155 410 -421 569 -555 936 -788
2186 -1352 3735 -1684 729 -157 1331 -251 2710 -426 925 -117 1408 -186 1995
-284 1123 -188 2528 -508 4800 -1091 2395 -615 3282 -815 4339 -980 123 -19
232 -35 242 -35 15 0 19 8 19 35 0 19 -2 35 -5 35 -20 0 -449 67 -645 100
-955 164 -1792 363 -4105 978 -247 66 -459 122 -470 125 -11 2 -121 32 -245
65 -394 106 -873 230 -1300 337 -627 156 -881 216 -1345 319 -336 74 -882 186
-1105 226 -63 12 -212 38 -331 60 -362 65 -924 149 -1599 240 -1544 207 -2136
302 -2826 456 -1858 413 -3242 1127 -4190 2162 -215 234 -446 550 -600 817
-306 534 -501 1127 -576 1750 -20 169 -17 705 5 870 144 1075 682 1872 1847
2737 221 164 518 367 955 655 662 436 883 568 1260 753 456 224 806 350 1260
454 l150 35 -265 0 -265 1 -130 -44z"/>
<path d="M7040 13333 c-855 -64 -1499 -220 -2201 -531 -349 -155 -623 -307
-1184 -656 -945 -588 -1484 -1003 -1909 -1472 -505 -556 -780 -1134 -882
-1849 -21 -148 -30 -610 -15 -785 62 -743 325 -1475 763 -2121 337 -499 820
-974 1388 -1365 843 -582 1923 -1023 3190 -1303 657 -145 1156 -229 2539 -427
1205 -172 1664 -248 2341 -388 1063 -220 2079 -481 4215 -1080 1755 -492 2685
-726 3575 -900 129 -25 258 -50 285 -56 167 -33 791 -130 835 -130 16 0 20 7
20 35 0 19 -4 35 -10 35 -17 0 -289 39 -455 66 -849 136 -1717 334 -2950 675
-452 125 -1306 370 -1790 514 -99 29 -315 92 -480 140 -165 48 -367 106 -450
130 -911 264 -1873 515 -2600 676 -733 164 -1308 265 -2540 449 -1442 215
-2091 335 -2790 515 -1756 452 -3103 1236 -3939 2290 -502 633 -837 1434 -932
2230 -25 206 -25 664 -1 850 100 755 385 1343 939 1939 425 456 1070 927 2005
1464 664 382 1294 635 1928 777 593 132 1286 188 2052 165 605 -18 1012 -53
1923 -164 818 -99 1357 -142 1940 -152 984 -18 1795 98 2490 358 215 80 216
77 -18 78 -202 0 -203 0 -320 -34 -935 -275 -1947 -330 -3457 -186 -247 24
-566 59 -900 100 -420 51 -770 85 -1143 110 -137 9 -1349 12 -1462 3z"/>
<path d="M9750 13335 c71 -19 1001 -107 1450 -137 305 -20 1204 -17 1449 5
323 29 727 88 871 127 22 6 -196 7 -600 3 -769 -7 -1213 -7 -2330 0 -470 3
-848 4 -840 2z"/>
<path d="M14740 13273 c-559 -268 -1255 -436 -2026 -487 -788 -52 -1532 -14
-2804 144 -885 110 -1354 151 -1982 172 -987 33 -1813 -65 -2583 -305 -644
-202 -1376 -566 -2110 -1052 -1265 -837 -1885 -1742 -1986 -2900 -14 -162 -5
-588 15 -740 70 -518 208 -964 442 -1425 228 -452 479 -794 859 -1175 698
-700 1615 -1236 2790 -1630 474 -160 875 -266 1460 -389 567 -119 923 -180
2210 -381 1217 -190 1885 -324 2851 -570 704 -179 1393 -377 2619 -751 171
-52 463 -142 650 -199 2014 -615 3090 -893 4179 -1080 246 -42 605 -95 646
-95 27 0 30 3 30 34 0 34 0 34 -57 40 -519 61 -1290 209 -1986 381 -873 216
-1611 435 -3532 1050 -1087 348 -1764 552 -2431 734 -215 59 -789 204 -869
221 -22 4 -107 24 -190 43 -284 67 -698 150 -1130 226 -294 52 -319 56 -1200
201 -932 154 -1437 248 -1935 364 -1562 363 -2730 902 -3640 1682 -148 127
-399 377 -525 524 -574 668 -934 1476 -1042 2335 -23 185 -23 643 0 820 78
590 274 1075 620 1538 124 165 177 227 347 400 422 432 926 792 1647 1176
1107 589 2176 831 3573 808 711 -12 1190 -53 2445 -211 517 -65 890 -102 1325
-133 307 -21 1084 -24 1330 -5 717 56 1263 171 1790 379 147 58 460 208 610
292 l55 31 -165 -1 -165 -1 -135 -65z"/>
<path d="M15330 13243 c-477 -275 -846 -431 -1310 -552 -551 -144 -1091 -205
-1810 -205 -600 1 -1122 38 -1875 134 -170 22 -467 60 -660 85 -1937 247
-3020 241 -4125 -21 -464 -110 -859 -257 -1355 -504 -632 -314 -1105 -637
-1509 -1030 -593 -578 -915 -1192 -1023 -1950 -25 -178 -25 -666 0 -870 122
-984 618 -1941 1371 -2644 961 -897 2218 -1488 4011 -1885 467 -103 1017 -206
1825 -341 765 -128 1434 -253 1869 -351 664 -149 1564 -397 2301 -634 58 -18
170 -54 250 -80 80 -25 604 -199 1165 -385 1674 -556 2043 -674 2725 -869 955
-273 1815 -463 2570 -566 102 -14 200 -28 218 -31 33 -5 33 -5 30 32 l-3 38
-205 27 c-1054 139 -2207 427 -3734 934 -403 133 -567 189 -1486 510 -1788
624 -2540 862 -3427 1084 -660 166 -1005 236 -2543 510 -1549 276 -2408 496
-3240 829 -1124 450 -2023 1085 -2625 1857 -95 121 -266 375 -337 500 -565
992 -709 2096 -395 3020 321 943 1099 1718 2302 2291 564 269 1123 436 1765
528 394 56 693 76 1160 76 759 0 1328 -52 2900 -264 680 -92 1145 -140 1620
-166 250 -13 1037 -5 1240 14 824 76 1445 239 2042 536 86 43 189 97 230 121
174 100 514 302 523 310 5 5 -56 9 -140 8 l-150 -1 -165 -95z"/>
<path d="M15915 13240 c-305 -190 -571 -348 -700 -418 -531 -287 -1165 -480
-1865 -566 -340 -42 -487 -50 -970 -50 -529 -1 -800 13 -1330 69 -291 31 -473
55 -1570 210 -558 78 -906 120 -1385 165 -499 47 -1227 59 -1635 26 -831 -66
-1468 -227 -2132 -536 -1067 -498 -1818 -1256 -2124 -2145 -291 -844 -203
-1820 246 -2740 321 -656 787 -1204 1445 -1700 529 -398 1217 -758 1950 -1019
72 -26 146 -53 165 -61 67 -25 485 -153 650 -198 575 -158 1156 -285 2145
-467 731 -134 857 -158 1235 -235 807 -163 1426 -325 2230 -580 314 -100 1019
-337 1260 -425 80 -29 435 -158 790 -287 1172 -427 1588 -575 2075 -738 1176
-394 2078 -628 2995 -780 194 -33 563 -85 595 -85 10 0 15 11 15 35 0 19 -4
35 -8 35 -5 0 -96 11 -203 26 -1058 139 -2178 427 -3564 917 -458 162 -794
287 -2045 764 -1219 465 -2168 789 -2895 988 -590 162 -1059 266 -2170 480
-1438 277 -2013 410 -2678 620 -1518 478 -2667 1211 -3370 2151 -428 573 -706
1242 -804 1934 -25 180 -25 704 0 875 130 874 593 1607 1372 2172 599 434
1337 729 2145 857 350 55 702 80 1150 79 747 0 1323 -58 2785 -283 813 -125
1145 -170 1535 -209 1362 -137 2423 -59 3320 246 217 73 505 196 680 290 197
106 282 157 720 435 135 85 278 174 318 197 39 24 72 45 72 47 0 2 -64 4 -142
3 l-143 0 -160 -99z"/>
<path d="M16465 13288 c-124 -69 -337 -198 -615 -373 -435 -274 -703 -417
-1010 -538 -527 -208 -1058 -324 -1735 -379 -210 -17 -1017 -17 -1260 0 -606
43 -1003 92 -2107 263 -1039 160 -1439 210 -2073 261 -218 18 -1111 18 -1300
0 -547 -51 -932 -125 -1340 -258 -995 -325 -1795 -917 -2242 -1657 -207 -344
-337 -712 -400 -1132 -25 -170 -25 -665 0 -845 75 -533 241 -1010 517 -1491
270 -470 623 -880 1080 -1255 820 -672 1874 -1162 3260 -1518 516 -132 927
-219 2125 -451 1259 -244 1928 -410 2890 -721 579 -186 1057 -358 2415 -869
1320 -497 1941 -714 2645 -925 884 -264 1690 -442 2420 -535 110 -13 215 -27
233 -29 l33 -5 -3 47 c-3 44 -5 47 -33 50 -161 14 -573 70 -765 103 -829 143
-1654 356 -2625 676 -563 186 -994 340 -2225 798 -2241 833 -3048 1071 -4820
1420 -1476 290 -1973 401 -2557 569 -1366 393 -2420 952 -3192 1691 -648 622
-1097 1441 -1241 2265 -68 385 -68 798 -1 1161 134 724 562 1385 1219 1882
804 609 1830 935 3042 966 834 21 1451 -38 3065 -290 946 -148 1353 -199 1925
-245 237 -19 1066 -28 1275 -14 639 43 1171 148 1680 332 378 137 640 273
1246 650 300 187 592 348 789 436 20 8 0 11 -100 10 l-125 0 -90 -50z"/>
<path d="M17030 13318 c-348 -128 -585 -251 -1125 -580 -582 -355 -832 -478
-1255 -618 -460 -153 -877 -233 -1475 -282 -197 -16 -955 -16 -1190 0 -644 45
-1069 99 -2225 282 -1269 201 -1943 270 -2639 270 -606 0 -1112 -55 -1576
-171 -1235 -309 -2196 -1005 -2644 -1914 -198 -401 -291 -811 -291 -1280 1
-1004 467 -2033 1275 -2813 692 -668 1604 -1182 2785 -1570 647 -213 1195
-346 2485 -603 1512 -303 1889 -390 2640 -610 732 -216 1369 -435 2925 -1007
1544 -568 2368 -835 3280 -1062 626 -156 1208 -264 1790 -330 230 -26 210 -29
210 25 0 25 -4 45 -9 45 -35 0 -427 45 -576 66 -1173 165 -2324 473 -4040
1082 -279 99 -475 170 -1275 459 -1287 465 -2133 737 -2920 937 -492 125 -765
185 -1765 386 -1338 269 -1925 409 -2560 611 -1594 509 -2782 1302 -3453 2307
-352 526 -551 1043 -644 1677 -18 123 -18 637 0 765 93 650 357 1174 832 1651
301 303 603 520 1004 721 631 316 1296 486 2106 538 368 23 1052 7 1465 -35
554 -56 894 -104 2060 -289 1163 -185 1822 -245 2570 -233 445 7 719 30 1088
92 643 108 1211 313 1747 630 63 38 220 131 347 207 627 373 918 504 1388 624
l170 43 -225 -1 c-200 0 -231 -2 -280 -20z"/>
<path d="M19385 13314 c208 -51 398 -114 551 -184 l64 -29 0 69 c0 45 -4 70
-12 73 -7 3 -64 26 -126 51 l-114 46 -231 -1 -232 0 100 -25z"/>
<path d="M18136 13299 c-253 -14 -549 -59 -791 -120 -436 -110 -794 -267
-1315 -578 -645 -386 -881 -502 -1300 -641 -627 -208 -1220 -294 -2040 -294
-694 0 -1333 61 -2375 229 -1681 270 -2179 329 -2920 342 -987 17 -1733 -113
-2477 -430 -914 -391 -1595 -1049 -1882 -1820 -131 -351 -184 -684 -173 -1082
15 -522 140 -994 401 -1515 294 -587 751 -1115 1357 -1570 318 -238 601 -411
1004 -615 737 -372 1576 -655 2670 -899 88 -20 178 -40 200 -46 71 -17 499
-106 915 -190 2032 -408 2635 -579 4965 -1410 1732 -618 2373 -827 3220 -1049
802 -211 1637 -362 2313 -419 l92 -8 0 47 0 46 -102 7 c-594 41 -1482 195
-2255 392 -842 214 -1576 447 -3058 969 -1757 619 -2499 856 -3375 1076 -404
102 -776 184 -1610 354 -1359 278 -1933 418 -2582 631 -1597 525 -2755 1310
-3411 2314 -573 878 -759 1872 -512 2740 237 830 927 1547 1895 1968 267 116
611 227 900 291 417 93 757 129 1285 138 785 13 1381 -48 2920 -298 992 -161
1478 -222 2060 -261 251 -16 963 -16 1170 0 736 59 1316 196 1859 437 196 87
338 162 731 388 182 104 349 200 373 214 92 53 383 194 488 237 357 146 743
241 1169 288 160 17 699 17 865 0 407 -44 781 -137 1081 -271 l109 -49 0 68 0
68 -117 50 c-365 156 -771 244 -1263 272 -195 11 -280 11 -484 -1z"/>
<path d="M18030 13054 c-240 -18 -569 -75 -825 -145 -383 -104 -672 -235
-1250 -565 -485 -277 -751 -408 -1040 -510 -497 -176 -984 -272 -1595 -315
-211 -15 -830 -15 -1070 0 -565 35 -1052 96 -1980 247 -1069 174 -1488 233
-1980 279 -620 58 -1230 58 -1750 -1 -906 -101 -1753 -431 -2365 -921 -142
-114 -370 -340 -475 -473 -173 -218 -319 -468 -413 -710 -394 -1012 -118
-2283 714 -3286 613 -738 1558 -1355 2749 -1797 715 -265 1441 -454 2825 -737
1967 -403 2607 -584 4960 -1405 1751 -611 2675 -887 3675 -1099 524 -111 1066
-193 1510 -231 102 -8 207 -18 233 -21 l48 -6 -3 48 -3 49 -110 7 c-685 44
-1552 187 -2380 394 -868 217 -1299 353 -3695 1164 -1287 435 -1929 626 -2800
834 -255 61 -599 135 -1490 321 -1382 289 -2136 496 -2885 795 -1047 417
-1904 990 -2475 1656 -463 539 -771 1176 -879 1821 -34 200 -44 360 -38 587 6
237 22 357 73 563 115 469 342 862 708 1229 276 276 553 473 926 659 613 307
1264 469 2070 516 225 13 823 7 1045 -11 630 -49 1037 -104 2115 -281 848
-139 1274 -199 1705 -239 1548 -142 2705 32 3684 552 64 34 249 135 411 226
582 326 904 464 1320 566 883 217 1896 145 2598 -184 l102 -49 0 68 c0 64 -1
68 -27 81 -332 157 -682 253 -1108 306 -125 15 -697 27 -835 18z"/>
<path d="M17990 12810 c-392 -33 -784 -115 -1113 -235 -269 -97 -508 -213
-972 -470 -551 -305 -924 -461 -1377 -575 -492 -123 -891 -170 -1513 -177
-553 -6 -913 14 -1505 87 -307 38 -505 69 -1390 214 -862 142 -1204 190 -1670
235 -375 37 -541 45 -960 45 -514 0 -783 -21 -1180 -95 -737 -135 -1404 -421
-1910 -819 -149 -117 -417 -390 -527 -537 -363 -483 -530 -1024 -510 -1643 16
-455 126 -887 341 -1335 503 -1049 1534 -1906 3006 -2502 793 -321 1524 -519
3191 -868 1287 -270 1848 -411 2819 -712 422 -130 726 -230 1875 -616 1132
-380 1578 -521 2145 -681 1200 -337 2139 -510 3168 -581 l92 -7 0 46 c0 54 17
50 -255 66 -607 35 -1481 170 -2170 335 -342 82 -410 99 -625 156 -693 185
-1132 321 -2610 809 -2094 691 -2668 853 -4120 1161 -129 28 -341 73 -470 100
-1052 223 -1733 397 -2310 589 -1162 388 -2104 921 -2774 1571 -365 353 -622
703 -834 1136 -387 788 -449 1645 -172 2344 344 865 1193 1525 2354 1829 310
81 585 127 976 162 191 17 959 17 1175 0 636 -50 998 -99 2130 -288 1028 -171
1338 -213 1960 -264 627 -52 1330 -27 1878 65 648 110 1089 270 1802 657 311
169 557 292 711 357 695 292 1480 390 2269 285 350 -46 683 -141 963 -274
l122 -59 0 68 0 68 -92 43 c-338 157 -671 247 -1098 295 -160 18 -668 28 -820
15z"/>
<path d="M17990 12570 c-496 -37 -987 -153 -1400 -333 -135 -58 -444 -212
-615 -305 -224 -122 -589 -300 -740 -360 -364 -145 -773 -254 -1170 -311 -403
-58 -696 -75 -1189 -68 -725 10 -1176 61 -2521 287 -1219 204 -1720 268 -2335
300 -1079 55 -1998 -103 -2765 -476 -362 -175 -632 -363 -890 -619 -231 -229
-377 -429 -510 -700 -171 -347 -240 -665 -240 -1090 1 -246 11 -355 55 -575
131 -651 488 -1299 1010 -1834 453 -463 998 -845 1695 -1187 886 -434 1711
-689 3405 -1054 1287 -277 1605 -352 2185 -510 601 -164 1128 -327 2290 -706
270 -88 578 -189 685 -224 2100 -685 3485 -993 4840 -1075 242 -15 220 -18
220 34 l0 45 -42 5 c-24 2 -140 9 -258 15 -474 24 -1003 89 -1600 197 -135 24
-274 51 -310 59 -36 8 -168 38 -295 65 -440 97 -1021 249 -1584 416 -480 142
-774 235 -2296 724 -550 177 -1169 361 -1700 505 -419 114 -1012 252 -1905
445 -300 64 -644 141 -745 165 -33 8 -100 23 -150 35 -1116 262 -1970 552
-2688 911 -631 316 -1185 706 -1606 1129 -557 560 -924 1241 -1041 1934 -64
377 -50 769 39 1112 187 716 735 1327 1536 1714 919 444 2035 569 3520 395
413 -49 762 -103 1685 -260 1212 -207 1780 -267 2515 -267 610 1 1082 54 1575
178 391 97 687 212 1130 437 151 77 357 182 457 232 572 290 1055 430 1683
486 183 16 557 13 755 -6 482 -45 857 -144 1213 -318 l112 -54 0 67 0 67 -127
60 c-338 161 -691 254 -1126 298 -181 19 -594 26 -757 15z"/>
<path d="M18065 12329 c-567 -20 -1089 -141 -1611 -374 -77 -35 -315 -151
-530 -258 -214 -108 -452 -222 -530 -255 -530 -225 -1114 -354 -1814 -401
-170 -12 -921 -6 -1095 8 -433 36 -717 68 -1080 122 -179 26 -360 56 -1280
213 -778 132 -1257 195 -1805 238 -222 17 -929 17 -1130 0 -1291 -110 -2303
-582 -2866 -1336 -238 -317 -378 -656 -441 -1066 -26 -169 -24 -545 5 -730 76
-497 253 -946 546 -1386 316 -475 763 -905 1346 -1294 899 -599 1951 -1005
3600 -1389 211 -49 328 -75 1110 -247 1233 -272 1887 -447 3200 -861 96 -30
216 -68 265 -83 50 -15 311 -98 580 -183 1498 -475 2477 -742 3265 -891 74
-14 194 -36 265 -50 539 -102 1174 -173 1793 -201 l142 -7 0 49 0 50 -227 6
c-613 17 -1366 109 -2103 257 -819 164 -1618 376 -2885 767 -258 80 -540 167
-625 193 -85 26 -285 88 -445 138 -662 206 -977 298 -1646 483 -351 97 -858
217 -1684 400 -1280 284 -1810 419 -2410 616 -1476 484 -2623 1204 -3276 2059
-479 626 -726 1328 -706 2009 11 367 76 642 227 950 402 826 1315 1403 2545
1609 326 55 618 76 1033 76 732 0 1404 -79 2817 -330 1177 -209 1823 -280
2547 -280 615 0 1074 50 1563 171 382 95 705 219 1157 445 261 131 552 268
683 322 381 157 790 257 1245 304 190 20 727 16 915 -6 476 -55 768 -138 1198
-339 l77 -36 0 65 0 65 -132 63 c-517 246 -1095 350 -1803 325z"/>
<path d="M17910 12083 c-19 -1 -84 -8 -145 -13 -399 -38 -819 -138 -1180 -282
-132 -53 -352 -153 -610 -278 -274 -133 -422 -201 -573 -261 -1002 -401 -2181
-481 -3758 -253 -239 34 -638 101 -1364 228 -774 135 -1279 204 -1815 247
-216 17 -809 23 -1015 10 -381 -25 -686 -69 -996 -146 -730 -180 -1281 -474
-1699 -906 -347 -358 -546 -759 -622 -1249 -24 -159 -24 -508 0 -675 85 -584
309 -1100 691 -1590 567 -729 1519 -1378 2686 -1832 742 -289 1431 -480 2925
-813 723 -161 1150 -262 1565 -370 261 -68 752 -206 1000 -280 52 -16 223 -67
380 -114 157 -47 463 -140 680 -206 1616 -495 2319 -691 3101 -864 991 -219
1766 -320 2682 -350 l157 -6 0 49 0 48 -272 6 c-1097 27 -2255 215 -3708 603
-439 118 -745 206 -1715 494 -88 27 -317 95 -510 153 -1386 418 -1902 554
-3297 867 -1393 314 -2066 500 -2768 765 -1313 497 -2341 1217 -2915 2039
-369 531 -575 1144 -575 1715 0 853 427 1555 1234 2030 447 263 1046 450 1686
525 437 52 1016 52 1585 0 171 -15 663 -74 785 -94 271 -44 944 -158 1170
-199 1234 -222 1846 -291 2580 -291 653 0 1193 69 1725 222 272 78 519 175
905 358 486 230 658 303 909 384 852 277 1888 285 2667 22 54 -18 190 -72 301
-120 111 -47 204 -86 208 -86 3 0 5 27 3 61 l-3 60 -130 60 c-425 195 -744
279 -1235 324 -147 13 -611 19 -720 8z"/>
<path d="M17855 11839 c-252 -18 -520 -60 -760 -119 -347 -84 -590 -175 -1075
-400 -370 -172 -554 -248 -780 -325 -915 -311 -2042 -365 -3435 -164 -249 36
-586 92 -1125 189 -998 179 -1437 243 -2020 296 -237 21 -896 30 -1126 15
-1358 -90 -2381 -592 -2874 -1410 -145 -241 -236 -506 -281 -816 -17 -113 -17
-455 0 -590 72 -587 326 -1147 755 -1665 125 -151 418 -440 576 -569 430 -352
932 -665 1470 -916 791 -369 1663 -645 3035 -959 182 -42 368 -85 415 -96 47
-10 216 -49 375 -85 914 -209 1436 -347 2625 -696 338 -100 703 -207 810 -239
777 -233 1709 -486 2230 -605 554 -127 1044 -222 1425 -275 83 -11 177 -25
210 -30 367 -59 1056 -110 1478 -110 l217 0 0 43 0 44 -319 6 c-1249 26 -2417
214 -4096 661 -55 15 -122 33 -150 41 -27 8 -158 44 -290 80 -217 60 -602 170
-1070 306 -1675 487 -2002 573 -3525 923 -988 228 -1557 379 -2102 560 -1197
397 -2137 913 -2839 1559 -733 675 -1144 1547 -1116 2372 11 323 69 571 197
840 162 343 411 633 750 875 682 488 1694 729 2864 682 676 -28 1162 -92 2411
-317 1039 -188 1416 -243 1920 -284 872 -71 1653 -20 2315 150 325 84 539 164
1036 385 362 161 591 253 775 313 846 273 1874 289 2654 41 55 -18 172 -61
260 -97 181 -75 306 -123 318 -123 4 0 7 26 7 59 l0 58 -122 50 c-68 28 -179
74 -248 102 -307 129 -681 209 -1115 241 -160 11 -497 11 -660 -1z"/>
<path d="M17935 11604 c-477 -29 -836 -95 -1235 -226 -194 -63 -317 -112 -695
-276 -165 -71 -363 -154 -440 -185 -918 -361 -2007 -452 -3370 -281 -364 45
-741 108 -1525 254 -424 78 -988 172 -1202 200 -40 5 -125 16 -188 24 -438 58
-774 80 -1205 79 -377 0 -575 -12 -860 -54 -682 -98 -1274 -317 -1695 -627
-485 -357 -780 -813 -875 -1352 -28 -162 -39 -385 -26 -551 97 -1234 1003
-2311 2626 -3122 824 -411 1697 -696 3240 -1057 215 -50 563 -132 775 -181
444 -104 944 -228 1210 -300 472 -128 560 -153 1790 -503 1330 -377 1997 -547
2735 -695 993 -199 1743 -285 2608 -298 l397 -6 0 49 0 50 -367 0 c-1296 3
-2604 210 -4478 709 -328 87 -719 195 -1430 395 -993 279 -1716 468 -2450 640
-236 55 -457 107 -490 115 -33 8 -121 28 -195 45 -464 107 -1153 288 -1530
402 -1283 386 -2279 884 -3055 1529 -143 118 -466 445 -569 574 -340 428 -546
849 -644 1315 -37 176 -47 280 -46 510 0 247 13 348 73 560 217 769 916 1359
1916 1615 269 69 538 115 860 147 202 20 938 17 1190 -6 610 -53 944 -103
2050 -306 708 -130 1040 -186 1326 -225 849 -113 1649 -124 2309 -29 518 74
912 191 1540 459 647 276 1024 387 1525 450 292 36 703 46 986 25 398 -31 777
-115 1089 -240 58 -23 169 -64 248 -91 l143 -48 -3 60 -3 61 -145 53 c-80 29
-203 76 -275 105 -280 112 -614 186 -985 220 -122 11 -554 20 -655 14z"/>
<path d="M17905 11360 c-593 -27 -1088 -140 -1695 -385 -510 -207 -582 -235
-720 -283 -889 -307 -1892 -375 -3165 -216 -358 44 -625 90 -1670 284 -1232
229 -1864 299 -2579 287 -325 -6 -416 -12 -666 -43 -913 -114 -1654 -462
-2087 -978 -236 -281 -369 -569 -434 -942 -31 -181 -32 -478 -1 -679 160
-1031 889 -1921 2187 -2665 303 -173 725 -376 1075 -515 723 -287 1463 -504
2780 -814 513 -121 639 -151 1025 -246 416 -103 856 -218 1420 -374 160 -43
495 -136 745 -205 1906 -524 2966 -753 4060 -875 553 -62 1251 -94 1653 -76
l167 7 0 50 0 50 -72 -7 c-113 -12 -840 -9 -1063 4 -1016 59 -1970 210 -3240
512 -433 103 -990 248 -1865 485 -1264 343 -1614 432 -2660 679 -1720 407
-2603 691 -3475 1120 -1056 519 -1839 1168 -2244 1859 -540 921 -518 1908 59
2586 473 556 1224 878 2275 976 220 21 777 23 1030 5 644 -46 1115 -117 2365
-355 790 -150 1235 -218 1725 -260 1097 -96 2032 5 2837 308 79 30 271 104
427 166 462 181 730 265 1036 324 312 61 540 85 870 93 592 13 1044 -53 1529
-226 105 -37 202 -71 216 -74 14 -4 76 -22 138 -41 l112 -34 0 59 c0 39 -4 61
-12 63 -55 16 -399 133 -503 170 -235 85 -506 147 -795 180 -131 15 -504 37
-585 34 -22 0 -112 -4 -200 -8z"/>
<path d="M17775 11114 c-571 -45 -993 -140 -1554 -351 -124 -47 -307 -115
-406 -153 -422 -158 -772 -250 -1180 -309 -389 -56 -879 -80 -1280 -62 -654
30 -1112 89 -2045 266 -1051 199 -1188 224 -1485 269 -690 106 -1310 150
-1787 128 -955 -45 -1669 -266 -2193 -680 -183 -145 -386 -380 -493 -569 -335
-595 -317 -1353 49 -2073 289 -570 761 -1060 1479 -1535 867 -575 1863 -983
3360 -1375 264 -69 588 -149 1240 -305 700 -168 1188 -293 2210 -565 190 -51
428 -115 530 -142 2350 -627 3889 -871 5320 -844 190 3 371 9 403 12 l57 7 0
50 0 49 -42 -6 c-101 -14 -654 -28 -898 -22 -1041 26 -2014 153 -3284 431
-535 116 -1200 282 -2351 583 -715 188 -1229 318 -1700 432 -1392 336 -1918
477 -2525 679 -890 297 -1643 654 -2270 1079 -136 92 -419 307 -530 402 -574
492 -954 1067 -1095 1660 -211 890 105 1674 870 2155 342 215 815 375 1335
449 322 47 535 59 945 53 752 -11 1205 -72 2810 -382 160 -30 335 -64 390 -75
1602 -308 2874 -290 3928 55 89 29 298 103 464 164 447 164 578 206 829 267
651 156 1395 185 2019 79 193 -33 324 -65 545 -136 161 -52 534 -159 554 -159
4 0 6 26 4 57 l-3 57 -150 43 c-82 24 -244 74 -360 113 -309 102 -516 148
-835 186 -129 15 -747 28 -875 18z"/>
<path d="M17730 10870 c-343 -24 -679 -79 -1020 -167 -96 -25 -495 -157 -895
-296 -215 -75 -362 -119 -530 -161 -885 -219 -1925 -228 -3150 -26 -179 30
-617 111 -915 170 -1450 288 -2084 371 -2825 371 -792 0 -1422 -126 -1933
-385 -238 -121 -429 -262 -603 -443 -137 -144 -224 -267 -308 -438 -136 -275
-184 -485 -184 -815 0 -198 15 -323 59 -510 159 -674 614 -1301 1339 -1845
702 -526 1550 -949 2595 -1293 625 -206 1214 -366 2425 -657 322 -77 938 -232
1430 -360 1784 -461 2561 -641 3425 -790 626 -109 1124 -169 1770 -215 365
-26 1258 -22 1533 7 l57 6 0 49 0 50 -47 -6 c-264 -32 -1240 -43 -1613 -18
-1080 73 -1991 216 -3346 526 -369 85 -1370 331 -1729 426 -122 32 -1138 285
-1962 489 -1530 378 -2400 671 -3246 1092 -1252 623 -2062 1362 -2391 2181
-254 634 -228 1283 71 1768 291 470 787 800 1458 969 423 106 850 149 1395
138 502 -10 958 -59 1620 -173 239 -41 299 -52 970 -184 278 -55 588 -115 690
-134 1375 -258 2487 -271 3450 -40 182 44 394 109 745 228 467 159 672 217
980 275 354 68 649 94 1040 94 500 0 842 -46 1266 -168 169 -49 619 -165 640
-165 5 0 9 24 9 54 0 43 -4 56 -17 60 -10 3 -99 26 -198 52 -99 25 -259 70
-355 100 -307 94 -507 136 -811 169 -166 19 -711 28 -889 15z"/>
<path d="M17815 10634 c-656 -38 -1015 -112 -1800 -367 -300 -98 -416 -132
-610 -181 -715 -178 -1560 -217 -2495 -115 -442 48 -725 96 -1645 280 -1213
242 -1729 322 -2335 359 -213 13 -666 13 -845 0 -696 -51 -1236 -207 -1645
-474 -351 -230 -618 -561 -735 -911 -71 -211 -103 -479 -86 -704 37 -471 205
-904 510 -1316 558 -752 1653 -1469 3031 -1985 662 -248 1290 -430 2626 -760
379 -94 1074 -267 1544 -384 1417 -354 2043 -496 2810 -635 1427 -259 2667
-336 3788 -235 l72 6 0 51 0 50 -62 -6 c-1291 -130 -2700 -28 -4433 318 -815
163 -1221 259 -3740 885 -1721 428 -2554 706 -3450 1149 -1384 686 -2209 1471
-2479 2362 -89 294 -115 608 -75 884 103 700 640 1240 1474 1484 203 59 528
117 800 141 203 18 633 24 870 11 660 -36 1140 -111 2570 -399 891 -181 1172
-225 1780 -281 354 -33 903 -38 1235 -11 544 45 944 125 1513 304 658 208 966
277 1477 333 236 26 926 26 1148 0 220 -25 419 -61 595 -107 83 -22 280 -69
437 -104 157 -35 297 -67 313 -71 l27 -7 0 56 0 55 -37 10 c-21 6 -126 31
-233 56 -209 48 -236 55 -435 110 -287 79 -590 127 -915 145 -160 9 -443 11
-565 4z"/>
<path d="M8155 10470 c-654 -53 -1132 -193 -1515 -446 -510 -336 -773 -815
-772 -1404 1 -796 447 -1537 1320 -2191 708 -531 1581 -969 2661 -1333 575
-194 1144 -355 2051 -580 1573 -389 1964 -484 2453 -596 1181 -269 2168 -438
3027 -519 531 -50 657 -56 1305 -56 616 0 719 4 1105 40 223 22 210 17 210 77
l0 50 -32 -5 c-192 -34 -730 -71 -1183 -82 -479 -12 -1317 31 -1860 96 -763
90 -1503 218 -2430 419 -814 177 -2657 628 -3432 840 -1595 438 -2715 925
-3643 1585 -608 433 -1003 872 -1233 1372 -144 314 -216 698 -189 1005 21 237
70 408 173 608 200 387 584 694 1084 867 536 184 1263 239 2110 157 540 -51
948 -122 2165 -374 738 -153 1015 -203 1383 -250 1137 -144 2051 -94 2977 165
47 13 157 44 245 69 543 152 866 215 1335 263 249 25 927 25 1150 0 211 -24
369 -51 600 -102 107 -24 283 -60 390 -80 167 -31 305 -61 373 -81 16 -5 18 0
15 52 l-3 58 -50 13 c-27 7 -162 36 -300 64 -137 28 -302 64 -365 81 -451 116
-954 163 -1471 139 -603 -28 -999 -99 -1684 -301 -499 -147 -731 -205 -1007
-250 -652 -106 -1379 -113 -2173 -19 -350 41 -683 98 -1260 215 -1359 276
-1570 314 -2070 379 -349 44 -538 56 -945 60 -223 2 -454 -1 -515 -5z"/>
<path d="M8378 10340 c-721 -41 -1221 -190 -1624 -485 -44 -32 -131 -110 -194
-174 -271 -272 -407 -574 -439 -968 -10 -124 -1 -317 20 -438 127 -732 610
-1364 1514 -1977 766 -520 1703 -951 2835 -1303 573 -179 1099 -319 2205 -591
1989 -488 3040 -690 4295 -824 556 -59 1263 -87 1795 -71 443 14 717 35 1158
87 l57 7 0 54 c0 47 -2 54 -17 49 -65 -19 -598 -74 -958 -98 -250 -16 -1164
-16 -1435 0 -1096 67 -2070 208 -3395 492 -954 204 -2427 570 -3170 786 -1328
387 -2336 827 -3185 1389 -376 249 -606 433 -847 677 -321 325 -529 649 -647
1007 -285 871 29 1640 829 2032 401 196 870 282 1545 282 375 0 607 -16 1020
-69 482 -62 791 -120 1845 -344 583 -124 842 -176 1105 -219 827 -137 1626
-166 2340 -85 326 37 567 84 1117 218 787 192 1268 256 1935 256 377 0 660
-27 1053 -100 116 -21 310 -55 433 -75 122 -20 268 -47 323 -61 55 -13 102
-24 105 -24 2 0 4 24 4 54 l0 54 -107 26 c-60 14 -162 35 -228 46 -220 39
-489 90 -580 110 -284 62 -607 90 -1030 90 -648 0 -1112 -61 -1790 -236 -669
-173 -828 -208 -1107 -249 -601 -86 -1218 -94 -1908 -24 -479 48 -815 107
-1735 300 -1235 261 -1734 343 -2350 388 -194 15 -620 21 -787 11z"/>
<path d="M8355 10200 c-150 -11 -278 -27 -415 -51 -930 -162 -1526 -723 -1568
-1479 -20 -346 45 -652 208 -985 242 -494 649 -911 1341 -1373 884 -590 1959
-1053 3392 -1463 1042 -297 2545 -651 3602 -848 1894 -353 3516 -423 4968
-215 l117 17 0 54 c0 50 -1 53 -22 48 -164 -36 -637 -92 -1022 -120 -1091 -80
-2343 -10 -3666 206 -960 156 -2148 416 -3319 725 -1562 413 -2656 843 -3621
1422 -858 515 -1378 1005 -1650 1554 -156 315 -228 667 -201 975 26 278 104
500 250 703 298 414 789 662 1481 747 183 22 893 26 1115 5 373 -35 692 -79
1075 -148 304 -55 552 -107 1196 -248 187 -41 445 -97 575 -125 820 -175 1468
-251 2147 -251 581 0 1000 45 1632 176 146 30 342 71 435 90 928 189 1814 225
2610 104 105 -16 280 -41 390 -55 231 -30 398 -58 507 -85 42 -11 79 -20 82
-20 3 0 6 24 6 54 0 48 -3 54 -22 59 -203 45 -295 62 -528 97 -151 22 -322 50
-380 60 -302 56 -608 80 -1013 80 -615 0 -1109 -57 -1741 -200 -640 -145 -658
-149 -901 -189 -536 -90 -1176 -111 -1825 -61 -548 42 -975 115 -2040 346
-1078 234 -1552 317 -2135 375 -235 23 -861 34 -1060 19z"/>
<path d="M8490 10074 c-682 -49 -1163 -238 -1497 -587 -179 -188 -287 -390
-345 -648 -20 -91 -23 -130 -23 -319 0 -185 3 -231 23 -329 152 -749 703
-1368 1812 -2033 1242 -746 2719 -1261 5180 -1807 2118 -470 3909 -619 5530
-460 199 20 613 76 755 102 l70 13 3 52 c3 58 4 58 -68 41 -203 -47 -804 -123
-1210 -153 -1299 -97 -2705 -1 -4279 290 -981 181 -2107 453 -3006 724 -1278
386 -2315 851 -3200 1435 -349 230 -603 434 -825 661 -409 419 -621 847 -660
1330 -33 406 90 772 353 1050 311 329 760 515 1364 565 189 15 793 7 1013 -15
635 -63 1040 -138 2420 -450 1197 -270 1764 -346 2590 -346 577 0 912 31 1565
145 693 121 911 152 1325 185 507 41 1045 39 1450 -5 74 -8 263 -28 420 -45
400 -41 592 -71 691 -105 23 -8 45 -15 50 -15 5 0 9 24 9 54 l0 54 -107 26
c-154 36 -250 51 -583 91 -162 19 -347 42 -410 50 -236 31 -334 37 -691 42
-709 11 -1207 -39 -2059 -206 -363 -71 -551 -103 -760 -130 -878 -113 -1830
-68 -2840 133 -243 48 -376 77 -995 214 -1074 239 -1504 315 -2091 373 -200
19 -820 34 -974 23z"/>
<path d="M8685 9949 c-197 -7 -242 -11 -420 -40 -677 -109 -1169 -474 -1333
-989 -72 -227 -84 -516 -31 -765 119 -557 474 -1038 1119 -1515 655 -484 1521
-942 2475 -1308 1241 -476 3066 -935 4640 -1166 1290 -190 2583 -234 3700
-126 389 38 779 93 1063 152 l102 21 0 54 c0 43 -3 54 -14 50 -40 -16 -359
-75 -596 -111 -593 -91 -1138 -134 -1815 -143 -1277 -17 -2563 123 -4015 436
-1994 429 -3531 987 -4775 1734 -350 210 -721 469 -941 658 -557 478 -844
1012 -847 1574 -1 375 115 668 363 915 264 263 619 421 1095 486 159 22 728
26 950 6 624 -55 1193 -156 2155 -382 1063 -249 1397 -318 1830 -379 518 -73
1080 -102 1590 -82 435 17 629 36 1270 126 516 72 777 100 1275 137 271 19
1081 17 1350 -5 121 -9 288 -22 370 -27 345 -23 550 -52 674 -95 41 -14 76
-25 78 -25 2 0 3 24 1 52 l-3 52 -50 19 c-110 41 -336 75 -670 102 -104 8
-257 22 -340 30 -270 27 -445 35 -775 35 -635 0 -1150 -43 -1855 -156 -598
-96 -806 -123 -1220 -154 -186 -14 -997 -5 -1215 14 -662 57 -1010 120 -2250
406 -1441 333 -2177 435 -2935 409z"/>
<path d="M8575 9815 c-155 -17 -348 -57 -466 -95 -132 -43 -379 -168 -474
-239 -266 -201 -429 -452 -497 -766 -17 -82 -17 -428 0 -520 77 -400 255 -728
581 -1067 474 -496 1511 -1132 2606 -1600 1594 -682 3814 -1210 5690 -1353
406 -31 541 -36 1020 -42 741 -9 1251 19 1920 103 328 41 859 133 1008 174 37
11 37 11 37 65 l0 53 -52 -14 c-29 -8 -150 -34 -268 -58 -1427 -294 -3075
-334 -4720 -115 -1587 211 -3182 636 -4495 1196 -855 365 -1770 886 -2303
1313 -575 460 -873 945 -911 1485 -30 420 112 777 409 1029 246 208 550 334
935 386 241 32 691 22 1111 -25 615 -70 984 -145 2439 -496 1241 -300 1861
-379 2875 -366 481 6 591 13 1325 87 1157 116 1744 143 2567 116 513 -17 748
-33 877 -61 68 -14 166 -40 199 -53 10 -3 12 7 10 44 l-3 49 -84 28 c-146 48
-314 68 -766 92 -763 40 -981 41 -1570 9 -432 -23 -691 -47 -1330 -124 -750
-90 -951 -104 -1480 -104 -939 0 -1530 84 -2875 408 -1243 299 -1848 410
-2510 461 -234 18 -639 18 -805 0z"/>
<path d="M8900 9714 c-353 -18 -622 -85 -869 -214 -132 -70 -237 -149 -341
-256 -232 -240 -331 -513 -317 -876 22 -597 363 -1117 1067 -1628 248 -181
661 -439 1020 -639 1298 -722 2897 -1270 4610 -1580 625 -113 1130 -174 1920
-232 231 -17 1221 -23 1506 -10 903 43 1795 166 2467 342 l37 10 0 55 c0 45
-3 55 -15 50 -46 -17 -403 -101 -600 -140 -1677 -333 -3448 -348 -5225 -45
-1999 341 -3864 1053 -5373 2052 -349 230 -556 395 -745 592 -299 311 -467
625 -527 983 -24 145 -17 410 15 532 53 202 152 371 302 516 108 104 203 171
344 242 395 198 885 234 1694 126 559 -75 943 -156 2100 -444 535 -134 943
-230 1164 -274 456 -92 914 -147 1476 -177 255 -13 1106 -7 1385 10 94 6 440
29 770 51 1196 79 1502 92 2220 93 563 1 674 -4 906 -42 l109 -17 0 37 c0 44
-3 45 -180 79 -174 33 -283 40 -800 50 -797 17 -1336 -5 -2545 -105 -826 -68
-973 -76 -1490 -76 -541 0 -959 28 -1435 97 -422 61 -738 129 -1770 383 -735
180 -1013 242 -1425 315 -365 66 -582 95 -890 120 -193 16 -459 25 -565 20z"/>
<path d="M8870 9589 c-415 -51 -731 -194 -957 -432 -213 -224 -304 -481 -290
-821 24 -569 345 -1058 1012 -1538 487 -350 1304 -815 1966 -1118 2248 -1030
4751 -1454 7229 -1224 686 63 1442 192 1998 341 l172 46 0 59 c0 53 -2 59 -17
53 -112 -43 -471 -137 -742 -194 -1786 -379 -3716 -385 -5556 -16 -1248 251
-2441 665 -3540 1229 -513 264 -1083 603 -1415 844 -423 307 -708 615 -855
924 -183 387 -201 797 -51 1123 144 311 467 550 879 650 382 93 950 65 1747
-85 351 -66 675 -141 1425 -330 982 -247 1284 -317 1590 -366 61 -10 102 -20
93 -22 -21 -4 -263 38 -478 84 -239 51 -427 97 -1155 280 -1049 263 -1444 347
-1975 418 -355 48 -726 62 -935 37 -360 -44 -656 -170 -867 -369 -362 -341
-429 -888 -173 -1417 225 -464 674 -852 1630 -1407 2838 -1647 6321 -2194
9555 -1502 291 63 562 137 768 211 l72 26 0 62 0 63 -77 -30 c-667 -260 -1740
-456 -2893 -528 -287 -18 -904 -24 -1235 -11 -1297 50 -2542 276 -3760 682
-1055 353 -2095 859 -2985 1452 -674 450 -1014 877 -1105 1389 -24 137 -17
398 14 513 116 421 479 716 1006 817 109 21 148 23 420 23 251 0 331 -4 490
-23 565 -69 1012 -161 2035 -418 1053 -265 1263 -312 1765 -388 50 -8 79 -14
65 -15 -33 -1 -322 43 -490 75 -247 46 -578 124 -1255 294 -1029 259 -1405
339 -1900 404 -604 81 -966 70 -1284 -38 -206 -70 -362 -165 -501 -306 -196
-198 -282 -419 -282 -725 0 -428 211 -843 612 -1203 438 -393 1385 -956 2270
-1350 2309 -1026 4896 -1359 7400 -951 674 110 1178 243 1583 417 l107 46 0
73 0 73 -98 -49 c-383 -192 -837 -328 -1507 -450 -813 -148 -1553 -209 -2420
-198 -434 5 -590 13 -935 42 -2032 176 -3987 828 -5645 1883 -345 219 -571
391 -746 564 -338 335 -503 676 -516 1063 -11 310 76 544 277 746 222 225 529
350 933 379 403 30 1111 -64 1922 -255 132 -31 497 -121 810 -200 787 -198
975 -240 1322 -300 109 -18 187 -34 173 -34 -38 -1 -364 55 -550 95 -234 50
-480 109 -995 239 -1081 273 -1575 371 -2135 420 -569 51 -970 -33 -1279 -266
-207 -156 -334 -367 -371 -620 -16 -105 -8 -324 14 -424 70 -314 243 -600 519
-859 150 -142 291 -250 537 -415 944 -630 2099 -1161 3260 -1496 901 -261
1781 -411 2780 -477 261 -17 1197 -17 1435 0 645 46 1066 99 1610 203 681 130
1136 283 1519 509 l86 51 0 90 0 91 -48 -36 c-160 -122 -465 -283 -697 -370
-596 -222 -1487 -384 -2510 -458 -245 -18 -1266 -18 -1510 0 -971 70 -1761
206 -2622 451 -1159 330 -2329 867 -3269 1502 -671 453 -979 883 -1011 1411
-33 544 338 956 966 1070 153 28 518 30 756 5 522 -56 917 -135 1970 -397 958
-238 1061 -261 1406 -314 207 -31 230 -36 149 -30 -100 8 -443 68 -655 114
-104 23 -487 115 -850 205 -1031 256 -1367 326 -1870 386 -257 31 -677 34
-830 6 -721 -134 -1076 -654 -899 -1315 116 -434 431 -785 1075 -1200 1583
-1019 3436 -1641 5364 -1801 648 -54 1301 -56 1945 -6 826 65 1723 234 2215
419 352 132 658 309 869 503 l57 52 -3 126 -3 126 -39 -51 c-62 -81 -222 -235
-322 -311 -428 -321 -970 -512 -1899 -668 -636 -107 -1216 -154 -1890 -153
-488 0 -867 20 -1295 68 -1800 201 -3492 800 -4970 1759 -589 383 -899 739
-1006 1155 -137 539 85 980 596 1185 202 81 332 100 660 99 291 -1 438 -15
830 -79 369 -61 584 -109 1435 -320 798 -198 938 -229 1280 -285 94 -16 158
-29 143 -29 -43 -2 -416 64 -623 109 -104 23 -442 104 -750 180 -866 215
-1157 279 -1515 334 -774 118 -1186 89 -1533 -108 -267 -153 -422 -384 -458
-684 -28 -236 45 -532 188 -759 167 -267 393 -480 798 -750 328 -219 704 -433
1140 -648 1001 -495 2009 -818 3135 -1005 356 -59 671 -96 1130 -132 225 -18
1255 -18 1480 0 843 66 1603 195 2104 358 670 219 1090 531 1354 1006 l32 58
0 593 0 593 -61 94 c-79 122 -249 292 -379 379 -257 171 -575 288 -955 350
-192 32 -328 42 -633 50 l-287 8 265 1 c415 3 712 -23 990 -84 407 -91 715
-238 964 -459 l96 -86 0 84 0 83 -107 71 c-297 196 -657 317 -1124 379 -83 11
-246 19 -489 23 l-365 7 357 2 c388 2 526 -6 778 -44 327 -50 634 -148 867
-275 40 -21 75 -39 78 -39 3 0 5 22 5 49 l0 49 -82 35 c-171 73 -343 125 -543
166 -253 51 -431 70 -785 81 l-255 8 340 -3 c534 -6 845 -51 1213 -173 l112
-38 0 33 c0 40 -4 42 -170 84 -144 36 -274 59 -515 91 -44 6 -246 13 -450 17
l-370 7 355 2 c536 3 686 -11 1123 -105 24 -5 27 -3 27 19 0 23 -6 27 -57 37
-199 38 -406 57 -733 67 -118 4 -217 9 -220 12 -3 2 139 2 315 -1 224 -5 374
-13 499 -27 99 -12 183 -23 188 -26 4 -3 8 4 8 14 0 26 -20 29 -248 43 -288
18 -1106 5 -1627 -26 -49 -2 -137 -7 -195 -10 -58 -3 -175 -10 -260 -15 -159
-10 -374 -23 -667 -40 -588 -35 -942 -49 -1368 -56 -341 -6 -877 5 -1081 21
-32 3 -124 10 -204 15 -631 46 -1161 142 -2115 385 -1189 303 -1529 381 -2015
464 -481 81 -668 101 -1005 106 -148 2 -304 0 -345 -6z m1295 -314 c456 -28
917 -116 1958 -375 799 -198 873 -214 1347 -289 30 -5 44 -9 30 -10 -31 -1
-308 42 -450 70 -193 38 -411 89 -938 220 -898 222 -1225 289 -1667 338 -520
59 -831 27 -1110 -111 -262 -130 -429 -337 -481 -597 -25 -125 -16 -331 21
-466 69 -258 197 -460 435 -688 429 -411 1474 -1000 2430 -1368 903 -348 1892
-577 2880 -668 670 -62 1413 -60 2050 4 419 43 849 111 1210 191 912 203 1463
556 1741 1114 101 203 143 376 143 585 0 320 -109 586 -337 822 -231 239 -575
407 -1017 497 -242 50 -344 59 -750 66 l-385 6 385 2 c515 2 732 -18 1045 -98
676 -173 1081 -520 1213 -1040 24 -94 27 -123 27 -280 0 -156 -3 -187 -27
-281 -136 -540 -540 -967 -1163 -1229 -531 -224 -1441 -396 -2450 -462 -243
-16 -960 -15 -1220 1 -1487 91 -2829 430 -4128 1042 -458 215 -1008 530 -1372
784 -461 323 -716 638 -812 1005 -34 130 -43 341 -19 459 49 239 173 421 379
556 265 172 560 230 1032 200z m250 -65 c456 -44 789 -110 1755 -349 643 -159
807 -195 1115 -246 77 -13 129 -23 115 -24 -42 -2 -363 55 -565 99 -104 23
-390 91 -635 151 -990 245 -1322 309 -1785 349 -545 46 -920 -56 -1166 -318
-130 -138 -195 -293 -206 -493 -26 -464 244 -879 831 -1277 654 -444 1488
-854 2286 -1124 595 -201 1123 -328 1820 -438 199 -31 568 -69 890 -92 231
-16 965 -16 1200 1 618 42 1186 124 1658 241 784 193 1268 517 1523 1017 234
459 170 968 -165 1321 -189 200 -424 335 -756 435 -273 83 -517 116 -940 127
l-295 8 370 -3 c396 -4 531 -14 765 -61 610 -121 1024 -385 1224 -781 142
-279 159 -609 49 -918 -99 -276 -305 -549 -559 -740 -421 -318 -1075 -522
-2074 -649 -476 -61 -794 -80 -1320 -80 -433 0 -627 8 -975 40 -1524 140
-2998 607 -4279 1356 -671 392 -1002 668 -1194 993 -183 311 -211 688 -72 965
111 223 371 403 681 471 177 38 427 45 704 19z m210 -64 c442 -53 723 -110
1600 -326 630 -155 771 -185 1090 -234 50 -7 78 -14 64 -15 -44 -2 -385 58
-594 104 -110 24 -348 80 -530 125 -804 198 -1020 244 -1375 294 -272 39 -424
49 -640 43 -159 -5 -215 -10 -302 -31 -514 -120 -776 -507 -673 -994 48 -232
175 -443 391 -653 162 -156 293 -254 609 -451 1115 -697 2383 -1151 3745
-1339 443 -61 779 -83 1300 -83 518 -1 805 17 1250 75 1033 135 1639 349 2018
714 645 620 568 1483 -170 1902 -184 105 -470 199 -739 243 -146 24 -313 38
-533 44 -93 3 -172 8 -175 11 -8 9 474 -4 614 -16 637 -53 1148 -279 1405
-621 77 -102 152 -255 186 -383 25 -90 28 -117 28 -265 0 -147 -3 -176 -26
-266 -63 -238 -181 -449 -353 -632 -352 -373 -861 -588 -1756 -741 -1824 -312
-3710 -105 -5438 596 -549 222 -1151 540 -1616 851 -219 147 -334 239 -470
376 -267 270 -390 540 -388 856 0 149 21 240 83 358 123 237 382 406 698 456
53 9 108 18 122 20 51 9 450 -3 575 -18z m105 -55 c402 -42 695 -101 1525
-306 527 -130 839 -195 1065 -221 36 -4 57 -10 47 -12 -21 -4 -256 30 -432 64
-157 31 -452 99 -835 194 -694 172 -1075 242 -1485 271 -172 12 -295 7 -445
-18 -369 -60 -636 -279 -706 -578 -21 -91 -21 -257 1 -359 92 -437 409 -753
1218 -1217 1749 -1002 3846 -1385 5877 -1073 858 132 1364 330 1696 662 258
259 395 579 381 892 -20 470 -339 830 -897 1014 -284 93 -520 126 -970 136
l-325 6 315 2 c305 2 504 -7 660 -28 836 -117 1328 -499 1399 -1088 38 -311
-101 -675 -363 -949 -389 -408 -1009 -630 -2131 -762 -592 -71 -1329 -80
-1925 -25 -1532 141 -3006 645 -4205 1439 -339 225 -527 394 -661 596 -124
185 -174 338 -181 550 -6 161 13 256 74 377 40 80 142 197 222 257 62 45 187
106 275 135 190 62 467 76 806 41z m80 -52 c200 -17 376 -43 630 -93 201 -40
258 -53 885 -206 395 -97 609 -142 875 -184 47 -8 74 -14 60 -15 -34 -1 -297
42 -451 75 -135 28 -280 62 -754 177 -569 138 -837 188 -1190 222 -497 47
-808 -27 -1026 -244 -138 -138 -195 -296 -186 -511 8 -182 57 -327 166 -492
150 -227 399 -432 857 -706 1029 -614 2232 -1013 3434 -1136 357 -37 444 -41
905 -41 554 0 840 20 1300 91 738 113 1188 275 1507 541 300 250 476 639 438
970 -63 552 -557 916 -1370 1007 -74 8 -265 18 -425 22 -159 4 -292 8 -294 10
-9 8 441 3 629 -6 526 -26 891 -127 1200 -333 90 -60 231 -200 284 -280 260
-399 212 -864 -134 -1282 -212 -257 -591 -464 -1075 -588 -417 -108 -946 -185
-1487 -217 -260 -16 -966 -8 -1223 14 -1445 124 -2836 592 -3995 1344 -200
130 -341 241 -466 366 -232 233 -338 451 -351 721 -7 141 12 239 69 355 79
162 253 304 453 369 205 67 393 80 735 50z m225 -64 c332 -39 591 -91 1255
-254 426 -103 595 -139 860 -182 71 -11 90 -16 50 -13 -153 13 -464 74 -875
174 -741 180 -1000 231 -1344 261 -168 14 -439 7 -541 -16 -228 -51 -417 -176
-508 -338 -67 -117 -94 -278 -73 -426 51 -350 279 -624 786 -945 1577 -1001
3541 -1406 5425 -1120 567 86 935 198 1223 373 432 262 667 719 577 1123 -102
461 -532 757 -1240 854 -87 12 -236 19 -485 24 l-360 6 360 2 c198 1 413 -3
479 -8 334 -28 618 -97 841 -206 298 -144 482 -342 571 -614 26 -79 28 -97 29
-250 0 -126 -4 -180 -17 -227 -97 -350 -334 -627 -703 -823 -373 -198 -1049
-341 -1890 -401 -214 -16 -782 -15 -1025 0 -882 56 -1756 253 -2575 581 -488
196 -977 451 -1381 721 -409 273 -619 519 -695 818 -46 180 -33 346 41 500 68
141 204 260 379 331 68 28 222 65 306 74 75 8 399 -4 530 -19z m162 -60 c287
-36 572 -94 1083 -219 339 -82 468 -111 660 -147 85 -16 130 -26 100 -24 -121
12 -353 60 -770 161 -697 169 -1034 225 -1363 226 -291 1 -446 -39 -613 -158
-160 -113 -238 -270 -237 -479 1 -228 100 -443 298 -640 146 -146 373 -306
700 -494 1397 -803 3083 -1124 4695 -895 351 49 642 113 860 189 446 155 748
432 865 795 40 121 47 309 16 431 -109 437 -542 712 -1246 790 -55 6 -253 14
-440 19 l-340 8 425 -3 c360 -3 449 -7 580 -25 453 -60 768 -193 985 -414 265
-270 316 -634 140 -991 -120 -243 -329 -439 -622 -581 -330 -161 -892 -281
-1593 -340 -249 -21 -874 -24 -1110 -5 -1079 86 -2014 340 -2920 795 -474 238
-854 483 -1058 680 -158 154 -237 271 -291 431 -154 462 87 822 608 905 81 13
445 4 588 -15z m-22 -41 c198 -13 568 -77 873 -150 78 -19 208 -50 290 -70
342 -82 695 -152 780 -155 15 0 21 -3 14 -6 -33 -13 -364 48 -762 142 -734
172 -935 207 -1247 221 -245 10 -393 -14 -551 -92 -160 -78 -269 -212 -303
-371 -19 -94 -7 -251 29 -355 88 -261 294 -465 740 -737 1241 -754 2752 -1093
4217 -945 534 54 959 150 1232 279 473 223 731 661 628 1066 -103 405 -536
664 -1215 728 -58 6 -213 13 -345 17 -132 3 -242 8 -244 10 -18 16 704 -10
864 -31 533 -71 910 -277 1063 -582 65 -127 77 -183 77 -348 -1 -143 -2 -154
-33 -245 -140 -406 -489 -675 -1062 -820 -658 -166 -1516 -220 -2285 -144
-1033 102 -2022 425 -2905 947 -383 227 -600 404 -726 593 -225 338 -184 724
98 915 183 125 386 160 773 133z m305 -73 c206 -27 386 -63 822 -165 323 -76
447 -103 623 -135 28 -5 39 -9 25 -10 -41 -2 -273 45 -595 120 -165 39 -318
74 -340 79 -22 4 -96 19 -165 33 -342 70 -694 95 -878 63 -249 -43 -426 -175
-487 -361 -16 -47 -20 -85 -19 -175 1 -100 5 -126 31 -202 75 -218 228 -384
548 -593 1228 -805 2817 -1141 4322 -915 809 122 1214 364 1365 816 20 59 23
89 23 209 -1 132 -2 145 -32 221 -73 193 -208 331 -428 441 -244 122 -531 178
-985 192 l-245 8 230 1 c624 4 1023 -81 1312 -280 242 -167 372 -435 335 -691
-54 -370 -336 -671 -777 -826 -389 -138 -1053 -231 -1644 -231 -878 0 -1692
156 -2496 478 -421 168 -932 446 -1223 664 -304 228 -458 496 -439 763 20 279
228 466 573 514 100 14 365 5 544 -18z m174 -61 c190 -29 278 -47 656 -134
336 -77 471 -106 625 -131 76 -12 80 -13 25 -9 -96 8 -308 48 -550 105 -487
114 -694 151 -943 170 -315 23 -534 -31 -672 -167 -201 -198 -168 -538 79
-802 256 -273 953 -653 1571 -855 441 -145 802 -222 1280 -274 229 -25 884
-25 1105 0 677 76 1025 183 1269 388 170 143 292 384 291 576 0 71 -26 178
-59 249 -92 197 -270 335 -554 429 -246 81 -449 105 -982 114 l-410 8 370 1
c652 3 921 -25 1209 -125 301 -104 501 -278 575 -499 51 -151 38 -333 -34
-490 -140 -305 -419 -496 -890 -609 -411 -99 -843 -141 -1368 -132 -344 5
-505 18 -805 63 -833 125 -1648 432 -2332 879 -283 185 -445 360 -509 552 -91
272 -5 515 224 634 82 43 122 56 219 75 104 20 431 11 610 -16z m7103 -6 c-3
-3 -12 -4 -19 -1 -8 3 -5 6 6 6 11 1 17 -2 13 -5z m-6982 -50 c167 -24 273
-45 685 -139 113 -26 264 -58 335 -71 72 -13 103 -21 70 -18 -83 8 -281 47
-532 105 -435 100 -677 134 -898 126 -157 -6 -227 -21 -330 -72 -112 -54 -183
-134 -220 -244 -27 -81 -18 -232 20 -326 83 -210 266 -376 665 -605 536 -308
1167 -525 1805 -619 467 -69 1029 -69 1498 -1 611 90 916 249 1072 558 117
233 78 482 -104 661 -112 111 -252 186 -456 246 -205 59 -413 82 -855 94
l-285 8 236 1 c653 5 1036 -51 1311 -189 175 -88 285 -195 353 -342 93 -202
57 -435 -99 -644 -167 -222 -440 -353 -911 -437 -1286 -229 -2661 31 -3770
712 -355 219 -522 398 -580 622 -26 99 -18 237 18 314 120 260 416 339 972
260z m1930 11 c44 -7 67 -13 50 -13 -16 0 -64 5 -105 12 -41 8 -64 14 -50 14
14 0 61 -5 105 -13z m143 -22 c-10 -2 -28 -2 -40 0 -13 2 -5 4 17 4 22 1 32
-1 23 -4z m85 -10 c-13 -2 -33 -2 -45 0 -13 2 -3 4 22 4 25 0 35 -2 23 -4z
m3890 0 c-7 -2 -19 -2 -25 0 -7 3 -2 5 12 5 14 0 19 -2 13 -5z m65 0 c-10 -2
-26 -2 -35 0 -10 3 -2 5 17 5 19 0 27 -2 18 -5z m-6093 -18 c149 -17 281 -42
625 -119 226 -50 348 -73 505 -95 33 -5 47 -9 30 -10 -49 -2 -272 36 -472 79
-527 115 -635 132 -843 132 -237 0 -370 -42 -470 -148 -78 -83 -95 -128 -94
-254 0 -119 18 -179 86 -286 45 -72 164 -189 263 -258 216 -152 560 -333 855
-449 744 -293 1571 -391 2348 -277 506 75 758 192 912 426 148 226 121 491
-68 666 -100 93 -228 160 -409 212 -189 54 -414 80 -828 95 l-210 8 160 1
c204 2 554 -14 714 -34 446 -53 751 -207 865 -434 105 -211 60 -455 -121 -651
-196 -211 -522 -323 -1128 -385 -196 -21 -680 -24 -870 -6 -450 43 -833 126
-1239 268 -449 159 -976 442 -1202 647 -231 210 -299 490 -167 685 116 171
362 232 758 187z m1853 8 c-10 -2 -26 -2 -35 0 -10 3 -2 5 17 5 19 0 27 -2 18
-5z m180 0 c-10 -2 -28 -2 -40 0 -13 2 -5 4 17 4 22 1 32 -1 23 -4z m195 0
c-13 -2 -33 -2 -45 0 -13 2 -3 4 22 4 25 0 35 -2 23 -4z m-295 -10 c-10 -2
-28 -2 -40 0 -13 2 -5 4 17 4 22 1 32 -1 23 -4z m185 0 c-13 -2 -33 -2 -45 0
-13 2 -3 4 22 4 25 0 35 -2 23 -4z m210 0 c-13 -2 -33 -2 -45 0 -13 2 -3 4 22
4 25 0 35 -2 23 -4z m-310 -10 c-13 -2 -33 -2 -45 0 -13 2 -3 4 22 4 25 0 35
-2 23 -4z m195 0 c-10 -2 -28 -2 -40 0 -13 2 -5 4 17 4 22 1 32 -1 23 -4z
m210 0 c-10 -2 -26 -2 -35 0 -10 3 -2 5 17 5 19 0 27 -2 18 -5z m-510 -10
c-10 -2 -28 -2 -40 0 -13 2 -5 4 17 4 22 1 32 -1 23 -4z m190 0 c-10 -2 -28
-2 -40 0 -13 2 -5 4 17 4 22 1 32 -1 23 -4z m215 0 c-13 -2 -33 -2 -45 0 -13
2 -3 4 22 4 25 0 35 -2 23 -4z m245 0 c-10 -2 -28 -2 -40 0 -13 2 -5 4 17 4
22 1 32 -1 23 -4z m-750 -10 c-10 -2 -28 -2 -40 0 -13 2 -5 4 17 4 22 1 32 -1
23 -4z m185 0 c-13 -2 -33 -2 -45 0 -13 2 -3 4 22 4 25 0 35 -2 23 -4z m210 0
c-13 -2 -33 -2 -45 0 -13 2 -3 4 22 4 25 0 35 -2 23 -4z m220 0 c-13 -2 -33
-2 -45 0 -13 2 -3 4 22 4 25 0 35 -2 23 -4z m275 0 c-16 -2 -40 -2 -55 0 -16
2 -3 4 27 4 30 0 43 -2 28 -4z m-2481 -33 c71 -12 227 -43 348 -70 206 -46
381 -78 535 -99 36 -5 52 -9 35 -10 -53 -2 -286 37 -526 88 -375 80 -405 84
-609 85 -153 1 -195 -2 -245 -17 -170 -53 -264 -153 -281 -299 -25 -213 129
-415 474 -623 672 -405 1510 -612 2289 -567 586 34 891 125 1076 321 249 264
176 607 -166 775 -238 117 -501 157 -1187 182 -102 4 -187 9 -190 12 -12 12
742 -19 950 -39 589 -56 923 -277 923 -609 0 -218 -157 -432 -396 -539 -271
-121 -762 -191 -1247 -177 -664 18 -1258 165 -1827 450 -418 209 -652 387
-740 562 -152 304 -6 553 347 594 105 12 300 3 437 -20z m1671 23 c-10 -2 -28
-2 -40 0 -13 2 -5 4 17 4 22 1 32 -1 23 -4z m200 0 c-10 -2 -28 -2 -40 0 -13
2 -5 4 17 4 22 1 32 -1 23 -4z m225 0 c-13 -2 -33 -2 -45 0 -13 2 -3 4 22 4
25 0 35 -2 23 -4z m264 1 c-3 -3 -12 -4 -19 -1 -8 3 -5 6 6 6 11 1 17 -2 13
-5z m-789 -11 c-10 -2 -28 -2 -40 0 -13 2 -5 4 17 4 22 1 32 -1 23 -4z m195 0
c-13 -2 -33 -2 -45 0 -13 2 -3 4 22 4 25 0 35 -2 23 -4z m210 0 c-13 -2 -33
-2 -45 0 -13 2 -3 4 22 4 25 0 35 -2 23 -4z m225 0 c-10 -2 -26 -2 -35 0 -10
3 -2 5 17 5 19 0 27 -2 18 -5z m290 0 c-10 -2 -26 -2 -35 0 -10 3 -2 5 17 5
19 0 27 -2 18 -5z m-1020 -10 c-10 -2 -28 -2 -40 0 -13 2 -5 4 17 4 22 1 32
-1 23 -4z m190 0 c-10 -2 -28 -2 -40 0 -13 2 -5 4 17 4 22 1 32 -1 23 -4z
m205 0 c-13 -2 -33 -2 -45 0 -13 2 -3 4 22 4 25 0 35 -2 23 -4z m235 0 c-10
-2 -28 -2 -40 0 -13 2 -5 4 17 4 22 1 32 -1 23 -4z m289 1 c-3 -3 -12 -4 -19
-1 -8 3 -5 6 6 6 11 1 17 -2 13 -5z m-839 -11 c-10 -2 -28 -2 -40 0 -13 2 -5
4 17 4 22 1 32 -1 23 -4z m195 0 c-13 -2 -33 -2 -45 0 -13 2 -3 4 22 4 25 0
35 -2 23 -4z m215 0 c-10 -2 -26 -2 -35 0 -10 3 -2 5 17 5 19 0 27 -2 18 -5z
m245 0 c-7 -2 -19 -2 -25 0 -7 3 -2 5 12 5 14 0 19 -2 13 -5z m324 1 c-3 -3
-12 -4 -19 -1 -8 3 -5 6 6 6 11 1 17 -2 13 -5z m-1079 -11 c-10 -2 -28 -2 -40
0 -13 2 -5 4 17 4 22 1 32 -1 23 -4z m195 0 c-13 -2 -33 -2 -45 0 -13 2 -3 4
22 4 25 0 35 -2 23 -4z m210 0 c-13 -2 -33 -2 -45 0 -13 2 -3 4 22 4 25 0 35
-2 23 -4z m265 0 c-10 -2 -26 -2 -35 0 -10 3 -2 5 17 5 19 0 27 -2 18 -5z
m339 1 c-3 -3 -12 -4 -19 -1 -8 3 -5 6 6 6 11 1 17 -2 13 -5z m-919 -11 c-10
-2 -28 -2 -40 0 -13 2 -5 4 17 4 22 1 32 -1 23 -4z m195 0 c-13 -2 -33 -2 -45
0 -13 2 -3 4 22 4 25 0 35 -2 23 -4z m235 0 c-10 -2 -28 -2 -40 0 -13 2 -5 4
17 4 22 1 32 -1 23 -4z m265 0 c-7 -2 -19 -2 -25 0 -7 3 -2 5 12 5 14 0 19 -2
13 -5z m-2167 -18 c56 -8 197 -35 313 -60 117 -25 285 -56 374 -69 89 -13 150
-25 135 -25 -38 -1 -283 35 -397 60 -432 91 -561 104 -728 75 -197 -35 -302
-140 -303 -303 0 -167 95 -304 309 -447 450 -298 995 -485 1580 -541 433 -42
959 11 1200 121 338 153 421 518 165 724 -181 145 -454 210 -1059 249 -438 29
-621 42 -630 47 -5 2 28 2 75 -1 47 -2 247 -14 445 -25 745 -41 936 -68 1162
-163 153 -65 255 -154 310 -273 38 -80 40 -208 5 -299 -75 -198 -276 -337
-579 -400 -226 -47 -379 -59 -708 -59 -277 0 -342 3 -480 22 -285 40 -466 82
-720 167 -433 144 -879 388 -1045 572 -187 207 -176 461 24 578 106 62 327 82
552 50z m1362 8 c-10 -2 -28 -2 -40 0 -13 2 -5 4 17 4 22 1 32 -1 23 -4z m205
0 c-13 -2 -33 -2 -45 0 -13 2 -3 4 22 4 25 0 35 -2 23 -4z m225 0 c-10 -2 -28
-2 -40 0 -13 2 -5 4 17 4 22 1 32 -1 23 -4z m295 0 c-7 -2 -19 -2 -25 0 -7 3
-2 5 12 5 14 0 19 -2 13 -5z m2245 0 c-15 -2 -42 -2 -60 0 -18 2 -6 4 27 4 33
0 48 -2 33 -4z m-3013 -13 c40 -6 43 -7 15 -8 -19 0 -57 3 -85 8 -40 6 -43 7
-15 8 19 0 58 -3 85 -8z m138 3 c-13 -2 -33 -2 -45 0 -13 2 -3 4 22 4 25 0 35
-2 23 -4z m205 0 c-10 -2 -26 -2 -35 0 -10 3 -2 5 17 5 19 0 27 -2 18 -5z
m235 0 c-7 -2 -19 -2 -25 0 -7 3 -2 5 12 5 14 0 19 -2 13 -5z m334 1 c-3 -3
-12 -4 -19 -1 -8 3 -5 6 6 6 11 1 17 -2 13 -5z m-674 -11 c-13 -2 -33 -2 -45
0 -13 2 -3 4 22 4 25 0 35 -2 23 -4z m270 0 c-7 -2 -19 -2 -25 0 -7 3 -2 5 12
5 14 0 19 -2 13 -5z m-765 -10 c-10 -2 -26 -2 -35 0 -10 3 -2 5 17 5 19 0 27
-2 18 -5z m180 0 c-10 -2 -28 -2 -40 0 -13 2 -5 4 17 4 22 1 32 -1 23 -4z
m200 0 c-10 -2 -28 -2 -40 0 -13 2 -5 4 17 4 22 1 32 -1 23 -4z m220 0 c-10
-2 -26 -2 -35 0 -10 3 -2 5 17 5 19 0 27 -2 18 -5z m275 0 c-7 -2 -19 -2 -25
0 -7 3 -2 5 12 5 14 0 19 -2 13 -5z m-795 -10 c-10 -2 -28 -2 -40 0 -13 2 -5
4 17 4 22 1 32 -1 23 -4z m195 0 c-13 -2 -33 -2 -45 0 -13 2 -3 4 22 4 25 0
35 -2 23 -4z m225 0 c-10 -2 -28 -2 -40 0 -13 2 -5 4 17 4 22 1 32 -1 23 -4z
m295 0 c-7 -2 -19 -2 -25 0 -7 3 -2 5 12 5 14 0 19 -2 13 -5z m-1556 -52 c349
-71 470 -86 1008 -131 566 -47 711 -67 890 -121 238 -73 375 -191 403 -349 36
-197 -113 -391 -363 -475 -283 -95 -892 -114 -1285 -40 -395 75 -760 212
-1085 408 -255 153 -361 281 -373 448 -8 120 50 214 164 265 82 36 137 43 294
39 120 -3 180 -10 347 -44z m931 42 c-10 -2 -28 -2 -40 0 -13 2 -5 4 17 4 22
1 32 -1 23 -4z m200 0 c-10 -2 -28 -2 -40 0 -13 2 -5 4 17 4 22 1 32 -1 23 -4z
m235 0 c-7 -2 -21 -2 -30 0 -10 3 -4 5 12 5 17 0 24 -2 18 -5z m344 1 c-3 -3
-12 -4 -19 -1 -8 3 -5 6 6 6 11 1 17 -2 13 -5z m1666 -1 c-13 -2 -33 -2 -45 0
-13 2 -3 4 22 4 25 0 35 -2 23 -4z m-2735 -10 c-10 -2 -26 -2 -35 0 -10 3 -2
5 17 5 19 0 27 -2 18 -5z m180 0 c-10 -2 -28 -2 -40 0 -13 2 -5 4 17 4 22 1
32 -1 23 -4z m205 0 c-13 -2 -33 -2 -45 0 -13 2 -3 4 22 4 25 0 35 -2 23 -4z
m255 0 c-10 -2 -26 -2 -35 0 -10 3 -2 5 17 5 19 0 27 -2 18 -5z m-560 -10
c-10 -2 -28 -2 -40 0 -13 2 -5 4 17 4 22 1 32 -1 23 -4z m195 0 c-13 -2 -33
-2 -45 0 -13 2 -3 4 22 4 25 0 35 -2 23 -4z m220 0 c-13 -2 -33 -2 -45 0 -13
2 -3 4 22 4 25 0 35 -2 23 -4z m260 0 c-7 -2 -19 -2 -25 0 -7 3 -2 5 12 5 14
0 19 -2 13 -5z m-590 -10 c-13 -2 -33 -2 -45 0 -13 2 -3 4 22 4 25 0 35 -2 23
-4z m220 0 c-13 -2 -33 -2 -45 0 -13 2 -3 4 22 4 25 0 35 -2 23 -4z m290 0
c-7 -2 -21 -2 -30 0 -10 3 -4 5 12 5 17 0 24 -2 18 -5z m-615 -10 c-10 -2 -28
-2 -40 0 -13 2 -5 4 17 4 22 1 32 -1 23 -4z m205 0 c-13 -2 -33 -2 -45 0 -13
2 -3 4 22 4 25 0 35 -2 23 -4z m235 0 c-10 -2 -28 -2 -40 0 -13 2 -5 4 17 4
22 1 32 -1 23 -4z m315 0 c-7 -2 -19 -2 -25 0 -7 3 -2 5 12 5 14 0 19 -2 13
-5z m1310 0 c-7 -2 -21 -2 -30 0 -10 3 -4 5 12 5 17 0 24 -2 18 -5z m-2165
-10 c-10 -2 -28 -2 -40 0 -13 2 -5 4 17 4 22 1 32 -1 23 -4z m185 0 c-13 -2
-33 -2 -45 0 -13 2 -3 4 22 4 25 0 35 -2 23 -4z m240 0 c-13 -2 -33 -2 -45 0
-13 2 -3 4 22 4 25 0 35 -2 23 -4z m344 1 c-3 -3 -12 -4 -19 -1 -8 3 -5 6 6 6
11 1 17 -2 13 -5z m-689 -11 c-10 -2 -28 -2 -40 0 -13 2 -5 4 17 4 22 1 32 -1
23 -4z m215 0 c-13 -2 -33 -2 -45 0 -13 2 -3 4 22 4 25 0 35 -2 23 -4z m250 0
c-7 -2 -21 -2 -30 0 -10 3 -4 5 12 5 17 0 24 -2 18 -5z m564 1 c-3 -3 -12 -4
-19 -1 -8 3 -5 6 6 6 11 1 17 -2 13 -5z m-924 -11 c-13 -2 -35 -2 -50 0 -16 2
-5 4 22 4 28 0 40 -2 28 -4z m265 0 c-10 -2 -28 -2 -40 0 -13 2 -5 4 17 4 22
1 32 -1 23 -4z m505 0 c-7 -2 -19 -2 -25 0 -7 3 -2 5 12 5 14 0 19 -2 13 -5z
m394 1 c-3 -3 -12 -4 -19 -1 -8 3 -5 6 6 6 11 1 17 -2 13 -5z m-1284 -11 c-13
-2 -33 -2 -45 0 -13 2 -3 4 22 4 25 0 35 -2 23 -4z m230 0 c-13 -2 -33 -2 -45
0 -13 2 -3 4 22 4 25 0 35 -2 23 -4z m290 0 c-7 -2 -21 -2 -30 0 -10 3 -4 5
12 5 17 0 24 -2 18 -5z m-410 -10 c-13 -2 -35 -2 -50 0 -16 2 -5 4 22 4 28 0
40 -2 28 -4z m310 0 c-7 -2 -21 -2 -30 0 -10 3 -4 5 12 5 17 0 24 -2 18 -5z
m-430 -10 c-13 -2 -35 -2 -50 0 -16 2 -5 4 22 4 28 0 40 -2 28 -4z m245 0
c-16 -2 -40 -2 -55 0 -16 2 -3 4 27 4 30 0 43 -2 28 -4z m360 0 c-10 -2 -28
-2 -40 0 -13 2 -5 4 17 4 22 1 32 -1 23 -4z m-500 -10 c-16 -2 -40 -2 -55 0
-16 2 -3 4 27 4 30 0 43 -2 28 -4z m350 0 c-15 -2 -42 -2 -60 0 -18 2 -6 4 27
4 33 0 48 -2 33 -4z m-485 -10 c-13 -2 -35 -2 -50 0 -16 2 -5 4 22 4 28 0 40
-2 28 -4z m280 0 c-18 -2 -48 -2 -65 0 -18 2 -4 4 32 4 36 0 50 -2 33 -4z
m575 0 c-42 -2 -114 -2 -160 0 -46 1 -11 3 77 3 88 0 125 -2 83 -3z m-380 -10
c-27 -2 -69 -2 -95 0 -27 2 -5 3 47 3 52 0 74 -1 48 -3z"/>
<path d="M11957 8470 c-128 -22 -230 -90 -263 -175 -40 -106 3 -249 107 -355
155 -157 562 -365 909 -464 309 -88 474 -110 830 -111 292 0 400 10 570 51
172 42 312 142 368 261 37 78 38 194 3 265 -37 77 -111 143 -214 192 -171 83
-339 116 -847 166 -555 55 -707 75 -985 130 -251 49 -366 58 -478 40z m419
-46 c282 -51 378 -66 804 -119 660 -83 761 -104 926 -185 240 -118 284 -350
97 -520 -115 -105 -326 -156 -683 -164 -258 -7 -463 17 -726 84 -185 47 -307
92 -489 179 -242 117 -409 234 -471 332 -84 133 -61 284 54 357 104 68 256 79
488 36z"/>
<path d="M12087 8420 c-135 -34 -216 -133 -203 -247 18 -156 141 -270 453
-424 377 -186 803 -267 1238 -237 233 17 373 58 459 138 166 154 118 367 -108
474 -117 55 -248 83 -723 155 -502 76 -616 94 -733 118 -136 27 -323 38 -383
23z m608 -80 c182 -34 452 -83 601 -111 291 -52 375 -74 467 -120 119 -61 177
-137 177 -234 0 -133 -110 -231 -307 -272 -113 -24 -499 -24 -638 0 -137 24
-301 68 -421 112 -193 73 -414 197 -498 281 -73 73 -107 188 -78 265 24 63 95
117 179 139 64 16 175 3 518 -60z"/>
<path d="M1 6282 l-1 -342 51 -113 c440 -977 1285 -1847 2409 -2479 819 -461
1774 -801 2870 -1022 833 -168 1509 -257 3235 -426 1434 -141 2209 -240 3420
-439 840 -138 1946 -349 3040 -581 416 -88 1341 -290 1515 -330 112 -26 1106
-249 1285 -289 361 -79 536 -115 865 -182 l355 -72 188 -2 c184 -2 238 6 135
19 -101 13 -730 136 -1100 215 -450 96 -685 149 -1448 325 -322 74 -686 158
-810 186 -124 28 -301 69 -395 90 -1429 327 -2866 619 -3985 809 -1035 176
-1742 269 -3190 421 -1606 168 -2354 277 -3190 461 -897 199 -1770 512 -2460
883 -786 424 -1400 916 -1910 1531 -346 418 -650 977 -825 1515 -26 80 -48
150 -50 155 -2 6 -4 -144 -4 -333z"/>
<path d="M0 5174 l0 -225 70 -102 c299 -438 772 -921 1265 -1292 366 -275 860
-569 1305 -776 1031 -479 2144 -771 3670 -963 552 -70 892 -103 1990 -196 393
-33 767 -65 830 -70 427 -37 928 -88 1430 -146 472 -54 1329 -166 1565 -204
33 -6 224 -35 425 -65 817 -124 1674 -273 2605 -454 695 -135 1195 -239 2405
-501 880 -190 786 -173 974 -176 93 -2 165 0 160 5 -5 4 -92 24 -194 45 -251
50 -798 168 -1240 266 -1822 406 -3409 720 -4695 929 -653 107 -1099 173
-1600 240 -838 112 -1289 161 -2505 271 -1692 154 -2295 229 -3180 396 -1141
216 -2184 584 -3035 1072 -546 312 -957 623 -1371 1036 -345 345 -612 688
-814 1044 -29 50 -54 92 -56 92 -2 0 -4 -102 -4 -226z"/>
<path d="M0 4354 l0 -187 78 -86 c865 -962 2102 -1686 3633 -2126 625 -179
1325 -316 2179 -424 301 -38 640 -74 1000 -105 524 -46 629 -54 1760 -131
3139 -215 5863 -596 8820 -1237 218 -47 247 -51 398 -54 155 -4 210 6 120 20
-24 4 -335 69 -693 146 -1941 414 -3674 721 -5165 915 -107 14 -280 36 -383
50 -883 116 -1875 216 -3042 305 -1221 93 -1558 121 -1985 165 -979 101 -1788
234 -2465 403 -1597 401 -2899 1094 -3813 2031 -122 126 -321 351 -391 444
-24 31 -45 57 -47 57 -2 0 -4 -84 -4 -186z"/>
<path d="M0 3658 l0 -166 103 -94 c1022 -944 2509 -1638 4222 -1972 967 -188
1989 -296 3605 -381 157 -8 328 -17 380 -20 52 -3 221 -12 375 -20 518 -28
648 -35 1100 -65 615 -41 1428 -105 1780 -140 1111 -110 1678 -175 2480 -286
958 -132 2085 -321 2855 -479 98 -20 162 -27 298 -30 94 -2 172 0 172 4 0 5
-17 11 -37 14 -21 3 -181 35 -356 71 -1572 325 -3472 620 -5087 791 -1139 120
-1998 192 -3110 260 -1493 92 -1663 103 -2145 146 -1603 140 -2758 367 -3780
742 -1096 402 -1999 952 -2712 1651 l-143 140 0 -166z"/>
<path d="M2 3030 l3 -153 136 -106 c574 -448 1294 -845 2077 -1145 1149 -440
2482 -689 4317 -806 510 -32 1107 -59 2135 -95 2863 -102 5275 -322 7305 -667
280 -48 313 -51 499 -54 110 -2 195 0 190 5 -5 4 -153 34 -329 65 -176 31
-369 65 -430 76 -1101 195 -2799 409 -4080 515 -104 8 -239 20 -300 25 -419
38 -1614 117 -2195 145 -63 3 -149 8 -190 10 -41 3 -280 14 -530 25 -685 30
-1058 49 -1450 70 -2047 115 -3387 341 -4600 777 -918 329 -1752 792 -2402
1334 -68 57 -132 110 -141 118 -17 13 -17 5 -15 -139z"/>
<path d="M0 2453 l0 -138 104 -71 c385 -267 926 -563 1401 -766 1401 -600
2920 -882 5275 -978 374 -15 855 -28 1630 -45 2117 -45 3414 -104 4780 -216
659 -54 1489 -143 2000 -214 115 -16 630 -30 630 -17 0 5 -37 14 -82 20 -46 6
-238 34 -428 61 -536 78 -987 133 -1775 216 -1040 109 -2676 211 -4270 265
-506 17 -608 20 -965 30 -1692 48 -2543 101 -3455 216 -1947 244 -3485 795
-4728 1696 -59 43 -110 78 -112 78 -3 0 -5 -62 -5 -137z"/>
<path d="M0 1917 l0 -133 153 -91 c956 -574 2124 -991 3400 -1213 785 -137
1606 -218 2632 -260 471 -19 1139 -30 2475 -40 1644 -12 2404 -26 3265 -60
594 -24 1318 -65 1680 -97 202 -17 1075 -29 1059 -14 -9 9 -27 11 -544 61
-1414 138 -3009 212 -5290 245 -995 14 -1638 25 -1780 30 -85 3 -294 10 -465
15 -1857 63 -3293 281 -4504 686 -201 68 -216 73 -458 167 -529 207 -1093 492
-1520 770 l-103 66 0 -132z"/>
<path d="M0 1405 l0 -124 93 -51 c50 -28 186 -97 302 -154 861 -425 1830 -729
2895 -910 381 -65 951 -137 1235 -156 175 -12 7656 -11 7610 0 -78 20 -1102
33 -3280 40 -2083 7 -2586 13 -3050 35 -1305 61 -2348 197 -3260 426 -868 218
-1724 554 -2414 948 -68 39 -126 71 -128 71 -1 0 -3 -56 -3 -125z"/>
<path d="M0 919 l0 -120 133 -63 c593 -282 1193 -496 1927 -688 l165 -43 463
-2 c254 0 462 2 462 6 0 4 -37 13 -82 20 -46 6 -193 34 -328 61 -927 186
-1810 484 -2590 875 l-150 75 0 -121z"/>
<path d="M2 453 l3 -117 100 -43 c129 -57 379 -156 575 -230 l155 -58 329 -2
c181 -1 325 2 320 6 -5 4 -74 27 -154 51 -348 103 -877 302 -1185 445 -44 20
-95 44 -113 51 l-33 15 3 -118z"/>
<path d="M0 59 l0 -60 130 3 c72 1 130 5 130 8 -1 3 -59 28 -130 57 l-130 51
0 -59z"/>
</g>
</svg>
